# xmcd CD database file
#
# Track frame offsets:
#	150
#	12942
#	24297
#	34020
#	45507
#	58587
#	69737
#	82202
#	95315
#	107545
#	120200
#	130902
#	144327
#	157805
#	170340
#	182252
#	195815
#	207105
#	219232
#	231907
#	245752
#	257342
#	271955
#	284295
#	295370
#
# Disc length: 4077 seconds
#
# Revision: 3
# Processed by: cddbd v1.5.2PL0 Copyright (c) Steve Scherf et al.
# Submitted via: cdripper 1,0,32,406
#
DISCID=4b0feb19
DTITLE=Gaye, Marvin - Anthology Volume I
DYEAR=1986
DGENRE=Motown
TTITLE0=Stubborn Kind Of Fellow
TTITLE1=Hitchhike
TTITLE2=Pride And Joy
TTITLE3=Once Upon A Time (with Mary Wells)
TTITLE4=Can I Get A Witness
TTITLE5=What's The Matter With You Baby (with Mary Wells)
TTITLE6=You're A Wonderful One
TTITLE7=Try It Baby
TTITLE8=Baby Don't You Do It
TTITLE9=What Good Am I Without You (with Kim Weston)
TTITLE10=Forever
TTITLE11=How Sweet It Is (To Be Loved By You)
TTITLE12=It Takes Two (with Kim Weston)
TTITLE13=I'll Be Doggone
TTITLE14=Pretty Little Baby
TTITLE15=Ain't That Peculiar
TTITLE16=Ain't No Mountain High Enough (with Tammi Terrell)
TTITLE17=One More Heartache
TTITLE18=Take This Heart Of Mine
TTITLE19=Your Precious Love
TTITLE20=Litttle Darling (I Need You)
TTITLE21=Your Unchanging Love
TTITLE22=If This World Were Mine (with Tammi Terrell)
TTITLE23=You
TTITLE24=If I Could Build My Whole World Around You (with Tammi Terrell)
EXTD=YEAR: 1986
EXTT0=
EXTT1=
EXTT2=
EXTT3=
EXTT4=
EXTT5=
EXTT6=
EXTT7=
EXTT8=
EXTT9=
EXTT10=
EXTT11=
EXTT12=
EXTT13=
EXTT14=
EXTT15=
EXTT16=
EXTT17=
EXTT18=
EXTT19=
EXTT20=
EXTT21=
EXTT22=
EXTT23=
EXTT24=
PLAYORDER=
